<svg width="20" height="20" viewBox="0 0 20 20" fill="none" xmlns="http://www.w3.org/2000/svg">
    <path fill-rule="evenodd" clip-rule="evenodd" d="M12.969 2.293a.469.469 0 0 0-.938 0v1.198H8.75a.469.469 0 1 0 0 .937h3.281v1.198a.469.469 0 0 0 .938 0V2.293zM2.03 8.96V5.626c0-1.18.956-2.135 2.136-2.135h1.197V2.293a.469.469 0 0 1 .937 0v1.639a.476.476 0 0 1 0 .055v1.64a.469.469 0 1 1-.937 0V4.427H4.167c-.662 0-1.198.537-1.198 1.198v2.865H17.03V5.626c0-.661-.537-1.198-1.198-1.198h-.417a.469.469 0 1 1 0-.937h.417c1.18 0 2.135.956 2.135 2.135V8.94a.43.43 0 0 1 0 .02v7.5c0 1.179-.955 2.135-2.135 2.135H4.167A2.135 2.135 0 0 1 2.03 16.46v-7.5zm.938 7.5V9.428H17.03v7.032c0 .661-.536 1.197-1.198 1.197H4.167a1.198 1.198 0 0 1-1.198-1.197z" fill="#000"/>
</svg>
